<svg width="25" height="23" viewBox="0 0 25 23" fill="none" xmlns="http://www.w3.org/2000/svg">
<path d="M2.5 22.5C1.8125 22.5 1.22396 22.2552 0.734375 21.7656C0.244792 21.276 0 20.6875 0 20V16.25H25V20C25 20.6875 24.7552 21.276 24.2656 21.7656C23.776 22.2552 23.1875 22.5 22.5 22.5H2.5ZM2.5 18.75V20H22.5V18.75H2.5ZM12.5 13.125C11.75 13.125 11.1562 13.3333 10.7188 13.75C10.2812 14.1667 9.47917 14.375 8.3125 14.375C7.14583 14.375 6.35417 14.1667 5.9375 13.75C5.52083 13.3333 4.9375 13.125 4.1875 13.125C3.4375 13.125 2.84375 13.3333 2.40625 13.75C1.96875 14.1667 1.16667 14.375 0 14.375V11.875C0.75 11.875 1.34375 11.6667 1.78125 11.25C2.21875 10.8333 3.02083 10.625 4.1875 10.625C5.35417 10.625 6.14583 10.8333 6.5625 11.25C6.97917 11.6667 7.5625 11.875 8.3125 11.875C9.0625 11.875 9.65625 11.6667 10.0938 11.25C10.5312 10.8333 11.3333 10.625 12.5 10.625C13.6667 10.625 14.4688 10.8333 14.9062 11.25C15.3438 11.6667 15.9375 11.875 16.6875 11.875C17.4375 11.875 18.0208 11.6667 18.4375 11.25C18.8542 10.8333 19.6458 10.625 20.8125 10.625C21.9792 10.625 22.8021 10.8333 23.2812 11.25C23.7604 11.6667 24.3333 11.875 25 11.875V14.375C23.8333 14.375 23.0521 14.1667 22.6562 13.75C22.2604 13.3333 21.6875 13.125 20.9375 13.125C20.1875 13.125 19.5833 13.3333 19.125 13.75C18.6667 14.1667 17.8542 14.375 16.6875 14.375C15.5208 14.375 14.7188 14.1667 14.2812 13.75C13.8438 13.3333 13.25 13.125 12.5 13.125ZM0 8.75V7.5C0 5.10417 1.13021 3.25521 3.39062 1.95312C5.65104 0.651042 8.6875 0 12.5 0C16.3125 0 19.349 0.651042 21.6094 1.95312C23.8698 3.25521 25 5.10417 25 7.5V8.75H0ZM12.5 2.5C9.91667 2.5 7.75521 2.82292 6.01562 3.46875C4.27604 4.11458 3.16667 5.04167 2.6875 6.25H22.3125C21.8333 5.04167 20.724 4.11458 18.9844 3.46875C17.2448 2.82292 15.0833 2.5 12.5 2.5Z" fill="#B52330"/>
</svg>
