<svg width="25" height="24" viewBox="0 0 25 24" fill="none" xmlns="http://www.w3.org/2000/svg">
<path d="M12.5 23.75L0 5C1.77083 3.5 3.71354 2.29167 5.82812 1.375C7.94271 0.458333 10.1667 0 12.5 0C14.8333 0 17.0573 0.453125 19.1719 1.35938C21.2865 2.26562 23.2292 3.47917 25 5L12.5 23.75ZM12.5 19.25L21.625 5.5625C20.2708 4.625 18.8229 3.88021 17.2812 3.32812C15.7396 2.77604 14.1458 2.5 12.5 2.5C10.8542 2.5 9.26562 2.77604 7.73438 3.32812C6.20312 3.88021 4.75 4.625 3.375 5.5625L12.5 19.25ZM9.375 8.75C9.89583 8.75 10.3385 8.56771 10.7031 8.20312C11.0677 7.83854 11.25 7.39583 11.25 6.875C11.25 6.35417 11.0677 5.91146 10.7031 5.54688C10.3385 5.18229 9.89583 5 9.375 5C8.85417 5 8.41146 5.18229 8.04688 5.54688C7.68229 5.91146 7.5 6.35417 7.5 6.875C7.5 7.39583 7.68229 7.83854 8.04688 8.20312C8.41146 8.56771 8.85417 8.75 9.375 8.75ZM12.5 15C13.0208 15 13.4635 14.8177 13.8281 14.4531C14.1927 14.0885 14.375 13.6458 14.375 13.125C14.375 12.6042 14.1927 12.1615 13.8281 11.7969C13.4635 11.4323 13.0208 11.25 12.5 11.25C11.9792 11.25 11.5365 11.4323 11.1719 11.7969C10.8073 12.1615 10.625 12.6042 10.625 13.125C10.625 13.6458 10.8073 14.0885 11.1719 14.4531C11.5365 14.8177 11.9792 15 12.5 15Z" fill="#B52330"/>
</svg>
