<svg width="18" height="24" viewBox="0 0 18 24" fill="none" xmlns="http://www.w3.org/2000/svg">
<path d="M8.75 23.7726C6.3125 23.7726 4.24479 22.9237 2.54688 21.2258C0.848958 19.5278 0 17.4601 0 15.0226C0 13.0643 0.578125 11.3091 1.73438 9.757C2.89062 8.20492 4.40625 7.15805 6.28125 6.61638C5.86458 6.51221 5.45833 6.36117 5.0625 6.16325C4.66667 5.96534 4.3125 5.71013 4 5.39763C3.3125 4.71013 2.86979 3.89242 2.67188 2.9445C2.47396 1.99659 2.42708 1.03305 2.53125 0.0538793C3.51042 -0.0502874 4.47396 -0.00341237 5.42188 0.194504C6.36979 0.392421 7.1875 0.835129 7.875 1.52263C8.35417 2.0018 8.70312 2.54346 8.92188 3.14763C9.14062 3.7518 9.28125 4.38721 9.34375 5.05388C9.61458 4.40805 9.94271 3.79867 10.3281 3.22575C10.7135 2.65284 11.1458 2.1268 11.625 1.64763C11.8542 1.41846 12.1458 1.30388 12.5 1.30388C12.8542 1.30388 13.1458 1.41846 13.375 1.64763C13.6042 1.8768 13.7188 2.16846 13.7188 2.52263C13.7188 2.8768 13.6042 3.16846 13.375 3.39763C12.9167 3.85596 12.5104 4.36117 12.1562 4.91325C11.8021 5.46534 11.5417 6.05388 11.375 6.67888C13.2083 7.26221 14.6875 8.3195 15.8125 9.85075C16.9375 11.382 17.5 13.106 17.5 15.0226C17.5 17.4601 16.651 19.5278 14.9531 21.2258C13.2552 22.9237 11.1875 23.7726 8.75 23.7726ZM8.75 21.2726C10.4792 21.2726 11.9531 20.6633 13.1719 19.4445C14.3906 18.2258 15 16.7518 15 15.0226C15 13.2935 14.3906 11.8195 13.1719 10.6008C11.9531 9.382 10.4792 8.77263 8.75 8.77263C7.02083 8.77263 5.54688 9.382 4.32812 10.6008C3.10938 11.8195 2.5 13.2935 2.5 15.0226C2.5 16.7518 3.10938 18.2258 4.32812 19.4445C5.54688 20.6633 7.02083 21.2726 8.75 21.2726Z" fill="#B52330"/>
</svg>
